M48
;GenerationSoftware,Autodesk,EAGLE,9.6.1*%
;CreationDate,2022-06-30T09:49:50Z*%
FMAT,2
ICI,OFF
METRIC,TZ,000.000
T6C0.508
T5C0.813
T4C1.000
T3C1.016
T2C1.194
T1C3.048
%
G90
M71
T1
X118501Y66010
X87386Y157704
T2
X132270Y26170
X132270Y21170
X109050Y21680
X93890Y21680
X132930Y37270
X132930Y42270
X98890Y21680
X83520Y21600
X88520Y21600
X114210Y21680
X119210Y21680
X104050Y21680
T3
X150720Y160070
X148180Y160070
X145640Y160070
X143100Y160070
X50610Y155250
X115410Y37670
X115410Y40210
X115410Y42750
X99580Y37570
X99580Y40110
X99580Y42650
X83750Y38970
X83750Y41510
X83750Y44050
X50610Y160330
X50610Y157790
X153550Y148000
X50610Y152710
X60940Y149030
X60940Y146490
X60940Y143950
X60940Y141410
X50570Y133930
X50570Y131390
X50570Y128850
X50570Y126310
X59180Y120580
X59180Y118040
X59180Y115500
X59180Y112960
X141650Y140300
X144190Y140300
X146730Y140300
X149270Y140300
X151810Y140300
X154350Y140300
X142550Y117900
X145090Y117900
X147630Y117900
X150170Y117900
X152710Y117900
X155250Y117900
X140950Y130600
X143490Y130600
X146030Y130600
X148570Y130600
X151110Y130600
X153650Y130600
X140850Y148000
X143390Y148000
X145930Y148000
X148470Y148000
X151010Y148000
T4
X96797Y92309
X96797Y94849
X99337Y92309
X99337Y94849
X101877Y92309
X101877Y94849
X104417Y92309
X104417Y94849
X106957Y92309
X106957Y94849
X109497Y92309
X109497Y94849
X112037Y92309
X112037Y94849
X94257Y92309
X100612Y87981
X103152Y87981
X105692Y87981
X108232Y87981
X110772Y87981
X113312Y87981
X98072Y87981
X95532Y87981
X92992Y87981
X90452Y87981
X75321Y117762
X77861Y117762
X77861Y120302
X75321Y120302
X75321Y122842
X77861Y122842
X75321Y115222
X77861Y115222
X77861Y112682
X75321Y112682
X75321Y110142
X77861Y110142
X126103Y117801
X126103Y120341
X128643Y120341
X128643Y122881
X126103Y122881
X128643Y115261
X126103Y115261
X126103Y112721
X128643Y112721
X128643Y110181
X126103Y110181
X128643Y117801
X75204Y140686
X77744Y140686
X75204Y143226
X77744Y143226
X75204Y145766
X77744Y145766
X75204Y148306
X75204Y150846
X75204Y153386
X77744Y148306
X77744Y150846
X77744Y153386
X75204Y138146
X77744Y138146
X77744Y135606
X75204Y135606
X75204Y133066
X77744Y133066
X75204Y130526
X77744Y130526
X77744Y127986
X75204Y127986
X125994Y140686
X128534Y140686
X128534Y143226
X125994Y143226
X125994Y145766
X128534Y145766
X128534Y148306
X128534Y150846
X128534Y153386
X125994Y148306
X125994Y150846
X125994Y153386
X128534Y127986
X125994Y127986
X125994Y130526
X128534Y130526
X128534Y133066
X128534Y135606
X128534Y138146
X125994Y133066
X125994Y135606
X125994Y138146
X80271Y162807
X82068Y161011
X82068Y164603
X83864Y162807
X78475Y161011
X80271Y159215
X76679Y159215
X78475Y157419
X121664Y164605
X119868Y162808
X123460Y162808
X121664Y161012
X125256Y161012
X123460Y159216
X127052Y159216
X125256Y157420
X120024Y92956
X121820Y91160
X121820Y94752
X123616Y92956
X123616Y96548
X125412Y98344
X127208Y96548
X85354Y81250
X87894Y81250
X85354Y78710
X87894Y78710
X85354Y76170
X87894Y76170
X85354Y73630
X87894Y73630
X115834Y81250
X118374Y81250
X115834Y78710
X118374Y78710
X115834Y76170
X118374Y76170
X115834Y73630
X118374Y73630
X125412Y94752
X110754Y166086
X90434Y166086
X90434Y163546
X92974Y166086
X95514Y163546
X95514Y166086
X98054Y163546
X98054Y166086
X100594Y163546
X100594Y166086
X103134Y163546
X103134Y166086
X105674Y163546
X105674Y166086
X108214Y163546
X108214Y166086
X110754Y163546
X92974Y163546
X113294Y166086
X113294Y163546
X91717Y94849
X91717Y92309
X94257Y94849
T5
X115470Y32160
X98870Y29520
X98870Y32060
X79870Y29720
X79870Y32260
X114730Y48060
X99260Y48060
X99260Y50600
X80870Y48620
X80870Y51160
X115470Y29620
X114730Y50600
T6
X125600Y126354
X138160Y131378
X148962Y115552
X55515Y140170
X82394Y157502
X126354Y101234
X143184Y123842
M30