G04 EAGLE Gerber RS-274X export*
G75*
%MOMM*%
%FSLAX34Y34*%
%LPD*%
%INBoard Outline*%
%IPPOS*%
%AMOC8*
5,1,8,0,0,1.08239X$1,22.5*%
G01*
%ADD10C,0.000000*%
%ADD11C,0.152400*%


D10*
X1325000Y1487000D02*
X1325005Y1487368D01*
X1325018Y1487736D01*
X1325041Y1488103D01*
X1325072Y1488470D01*
X1325113Y1488836D01*
X1325162Y1489201D01*
X1325221Y1489564D01*
X1325288Y1489926D01*
X1325364Y1490287D01*
X1325450Y1490645D01*
X1325543Y1491001D01*
X1325646Y1491354D01*
X1325757Y1491705D01*
X1325877Y1492053D01*
X1326005Y1492398D01*
X1326142Y1492740D01*
X1326287Y1493079D01*
X1326440Y1493413D01*
X1326602Y1493744D01*
X1326771Y1494071D01*
X1326949Y1494393D01*
X1327134Y1494712D01*
X1327327Y1495025D01*
X1327528Y1495334D01*
X1327736Y1495637D01*
X1327952Y1495935D01*
X1328175Y1496228D01*
X1328405Y1496516D01*
X1328642Y1496798D01*
X1328886Y1497073D01*
X1329136Y1497343D01*
X1329393Y1497607D01*
X1329657Y1497864D01*
X1329927Y1498114D01*
X1330202Y1498358D01*
X1330484Y1498595D01*
X1330772Y1498825D01*
X1331065Y1499048D01*
X1331363Y1499264D01*
X1331666Y1499472D01*
X1331975Y1499673D01*
X1332288Y1499866D01*
X1332607Y1500051D01*
X1332929Y1500229D01*
X1333256Y1500398D01*
X1333587Y1500560D01*
X1333921Y1500713D01*
X1334260Y1500858D01*
X1334602Y1500995D01*
X1334947Y1501123D01*
X1335295Y1501243D01*
X1335646Y1501354D01*
X1335999Y1501457D01*
X1336355Y1501550D01*
X1336713Y1501636D01*
X1337074Y1501712D01*
X1337436Y1501779D01*
X1337799Y1501838D01*
X1338164Y1501887D01*
X1338530Y1501928D01*
X1338897Y1501959D01*
X1339264Y1501982D01*
X1339632Y1501995D01*
X1340000Y1502000D01*
X1340368Y1501995D01*
X1340736Y1501982D01*
X1341103Y1501959D01*
X1341470Y1501928D01*
X1341836Y1501887D01*
X1342201Y1501838D01*
X1342564Y1501779D01*
X1342926Y1501712D01*
X1343287Y1501636D01*
X1343645Y1501550D01*
X1344001Y1501457D01*
X1344354Y1501354D01*
X1344705Y1501243D01*
X1345053Y1501123D01*
X1345398Y1500995D01*
X1345740Y1500858D01*
X1346079Y1500713D01*
X1346413Y1500560D01*
X1346744Y1500398D01*
X1347071Y1500229D01*
X1347393Y1500051D01*
X1347712Y1499866D01*
X1348025Y1499673D01*
X1348334Y1499472D01*
X1348637Y1499264D01*
X1348935Y1499048D01*
X1349228Y1498825D01*
X1349516Y1498595D01*
X1349798Y1498358D01*
X1350073Y1498114D01*
X1350343Y1497864D01*
X1350607Y1497607D01*
X1350864Y1497343D01*
X1351114Y1497073D01*
X1351358Y1496798D01*
X1351595Y1496516D01*
X1351825Y1496228D01*
X1352048Y1495935D01*
X1352264Y1495637D01*
X1352472Y1495334D01*
X1352673Y1495025D01*
X1352866Y1494712D01*
X1353051Y1494393D01*
X1353229Y1494071D01*
X1353398Y1493744D01*
X1353560Y1493413D01*
X1353713Y1493079D01*
X1353858Y1492740D01*
X1353995Y1492398D01*
X1354123Y1492053D01*
X1354243Y1491705D01*
X1354354Y1491354D01*
X1354457Y1491001D01*
X1354550Y1490645D01*
X1354636Y1490287D01*
X1354712Y1489926D01*
X1354779Y1489564D01*
X1354838Y1489201D01*
X1354887Y1488836D01*
X1354928Y1488470D01*
X1354959Y1488103D01*
X1354982Y1487736D01*
X1354995Y1487368D01*
X1355000Y1487000D01*
X1354995Y1486632D01*
X1354982Y1486264D01*
X1354959Y1485897D01*
X1354928Y1485530D01*
X1354887Y1485164D01*
X1354838Y1484799D01*
X1354779Y1484436D01*
X1354712Y1484074D01*
X1354636Y1483713D01*
X1354550Y1483355D01*
X1354457Y1482999D01*
X1354354Y1482646D01*
X1354243Y1482295D01*
X1354123Y1481947D01*
X1353995Y1481602D01*
X1353858Y1481260D01*
X1353713Y1480921D01*
X1353560Y1480587D01*
X1353398Y1480256D01*
X1353229Y1479929D01*
X1353051Y1479607D01*
X1352866Y1479288D01*
X1352673Y1478975D01*
X1352472Y1478666D01*
X1352264Y1478363D01*
X1352048Y1478065D01*
X1351825Y1477772D01*
X1351595Y1477484D01*
X1351358Y1477202D01*
X1351114Y1476927D01*
X1350864Y1476657D01*
X1350607Y1476393D01*
X1350343Y1476136D01*
X1350073Y1475886D01*
X1349798Y1475642D01*
X1349516Y1475405D01*
X1349228Y1475175D01*
X1348935Y1474952D01*
X1348637Y1474736D01*
X1348334Y1474528D01*
X1348025Y1474327D01*
X1347712Y1474134D01*
X1347393Y1473949D01*
X1347071Y1473771D01*
X1346744Y1473602D01*
X1346413Y1473440D01*
X1346079Y1473287D01*
X1345740Y1473142D01*
X1345398Y1473005D01*
X1345053Y1472877D01*
X1344705Y1472757D01*
X1344354Y1472646D01*
X1344001Y1472543D01*
X1343645Y1472450D01*
X1343287Y1472364D01*
X1342926Y1472288D01*
X1342564Y1472221D01*
X1342201Y1472162D01*
X1341836Y1472113D01*
X1341470Y1472072D01*
X1341103Y1472041D01*
X1340736Y1472018D01*
X1340368Y1472005D01*
X1340000Y1472000D01*
X1339632Y1472005D01*
X1339264Y1472018D01*
X1338897Y1472041D01*
X1338530Y1472072D01*
X1338164Y1472113D01*
X1337799Y1472162D01*
X1337436Y1472221D01*
X1337074Y1472288D01*
X1336713Y1472364D01*
X1336355Y1472450D01*
X1335999Y1472543D01*
X1335646Y1472646D01*
X1335295Y1472757D01*
X1334947Y1472877D01*
X1334602Y1473005D01*
X1334260Y1473142D01*
X1333921Y1473287D01*
X1333587Y1473440D01*
X1333256Y1473602D01*
X1332929Y1473771D01*
X1332607Y1473949D01*
X1332288Y1474134D01*
X1331975Y1474327D01*
X1331666Y1474528D01*
X1331363Y1474736D01*
X1331065Y1474952D01*
X1330772Y1475175D01*
X1330484Y1475405D01*
X1330202Y1475642D01*
X1329927Y1475886D01*
X1329657Y1476136D01*
X1329393Y1476393D01*
X1329136Y1476657D01*
X1328886Y1476927D01*
X1328642Y1477202D01*
X1328405Y1477484D01*
X1328175Y1477772D01*
X1327952Y1478065D01*
X1327736Y1478363D01*
X1327528Y1478666D01*
X1327327Y1478975D01*
X1327134Y1479288D01*
X1326949Y1479607D01*
X1326771Y1479929D01*
X1326602Y1480256D01*
X1326440Y1480587D01*
X1326287Y1480921D01*
X1326142Y1481260D01*
X1326005Y1481602D01*
X1325877Y1481947D01*
X1325757Y1482295D01*
X1325646Y1482646D01*
X1325543Y1482999D01*
X1325450Y1483355D01*
X1325364Y1483713D01*
X1325288Y1484074D01*
X1325221Y1484436D01*
X1325162Y1484799D01*
X1325113Y1485164D01*
X1325072Y1485530D01*
X1325041Y1485897D01*
X1325018Y1486264D01*
X1325005Y1486632D01*
X1325000Y1487000D01*
X1328000Y969000D02*
X1328005Y969368D01*
X1328018Y969736D01*
X1328041Y970103D01*
X1328072Y970470D01*
X1328113Y970836D01*
X1328162Y971201D01*
X1328221Y971564D01*
X1328288Y971926D01*
X1328364Y972287D01*
X1328450Y972645D01*
X1328543Y973001D01*
X1328646Y973354D01*
X1328757Y973705D01*
X1328877Y974053D01*
X1329005Y974398D01*
X1329142Y974740D01*
X1329287Y975079D01*
X1329440Y975413D01*
X1329602Y975744D01*
X1329771Y976071D01*
X1329949Y976393D01*
X1330134Y976712D01*
X1330327Y977025D01*
X1330528Y977334D01*
X1330736Y977637D01*
X1330952Y977935D01*
X1331175Y978228D01*
X1331405Y978516D01*
X1331642Y978798D01*
X1331886Y979073D01*
X1332136Y979343D01*
X1332393Y979607D01*
X1332657Y979864D01*
X1332927Y980114D01*
X1333202Y980358D01*
X1333484Y980595D01*
X1333772Y980825D01*
X1334065Y981048D01*
X1334363Y981264D01*
X1334666Y981472D01*
X1334975Y981673D01*
X1335288Y981866D01*
X1335607Y982051D01*
X1335929Y982229D01*
X1336256Y982398D01*
X1336587Y982560D01*
X1336921Y982713D01*
X1337260Y982858D01*
X1337602Y982995D01*
X1337947Y983123D01*
X1338295Y983243D01*
X1338646Y983354D01*
X1338999Y983457D01*
X1339355Y983550D01*
X1339713Y983636D01*
X1340074Y983712D01*
X1340436Y983779D01*
X1340799Y983838D01*
X1341164Y983887D01*
X1341530Y983928D01*
X1341897Y983959D01*
X1342264Y983982D01*
X1342632Y983995D01*
X1343000Y984000D01*
X1343368Y983995D01*
X1343736Y983982D01*
X1344103Y983959D01*
X1344470Y983928D01*
X1344836Y983887D01*
X1345201Y983838D01*
X1345564Y983779D01*
X1345926Y983712D01*
X1346287Y983636D01*
X1346645Y983550D01*
X1347001Y983457D01*
X1347354Y983354D01*
X1347705Y983243D01*
X1348053Y983123D01*
X1348398Y982995D01*
X1348740Y982858D01*
X1349079Y982713D01*
X1349413Y982560D01*
X1349744Y982398D01*
X1350071Y982229D01*
X1350393Y982051D01*
X1350712Y981866D01*
X1351025Y981673D01*
X1351334Y981472D01*
X1351637Y981264D01*
X1351935Y981048D01*
X1352228Y980825D01*
X1352516Y980595D01*
X1352798Y980358D01*
X1353073Y980114D01*
X1353343Y979864D01*
X1353607Y979607D01*
X1353864Y979343D01*
X1354114Y979073D01*
X1354358Y978798D01*
X1354595Y978516D01*
X1354825Y978228D01*
X1355048Y977935D01*
X1355264Y977637D01*
X1355472Y977334D01*
X1355673Y977025D01*
X1355866Y976712D01*
X1356051Y976393D01*
X1356229Y976071D01*
X1356398Y975744D01*
X1356560Y975413D01*
X1356713Y975079D01*
X1356858Y974740D01*
X1356995Y974398D01*
X1357123Y974053D01*
X1357243Y973705D01*
X1357354Y973354D01*
X1357457Y973001D01*
X1357550Y972645D01*
X1357636Y972287D01*
X1357712Y971926D01*
X1357779Y971564D01*
X1357838Y971201D01*
X1357887Y970836D01*
X1357928Y970470D01*
X1357959Y970103D01*
X1357982Y969736D01*
X1357995Y969368D01*
X1358000Y969000D01*
X1357995Y968632D01*
X1357982Y968264D01*
X1357959Y967897D01*
X1357928Y967530D01*
X1357887Y967164D01*
X1357838Y966799D01*
X1357779Y966436D01*
X1357712Y966074D01*
X1357636Y965713D01*
X1357550Y965355D01*
X1357457Y964999D01*
X1357354Y964646D01*
X1357243Y964295D01*
X1357123Y963947D01*
X1356995Y963602D01*
X1356858Y963260D01*
X1356713Y962921D01*
X1356560Y962587D01*
X1356398Y962256D01*
X1356229Y961929D01*
X1356051Y961607D01*
X1355866Y961288D01*
X1355673Y960975D01*
X1355472Y960666D01*
X1355264Y960363D01*
X1355048Y960065D01*
X1354825Y959772D01*
X1354595Y959484D01*
X1354358Y959202D01*
X1354114Y958927D01*
X1353864Y958657D01*
X1353607Y958393D01*
X1353343Y958136D01*
X1353073Y957886D01*
X1352798Y957642D01*
X1352516Y957405D01*
X1352228Y957175D01*
X1351935Y956952D01*
X1351637Y956736D01*
X1351334Y956528D01*
X1351025Y956327D01*
X1350712Y956134D01*
X1350393Y955949D01*
X1350071Y955771D01*
X1349744Y955602D01*
X1349413Y955440D01*
X1349079Y955287D01*
X1348740Y955142D01*
X1348398Y955005D01*
X1348053Y954877D01*
X1347705Y954757D01*
X1347354Y954646D01*
X1347001Y954543D01*
X1346645Y954450D01*
X1346287Y954364D01*
X1345926Y954288D01*
X1345564Y954221D01*
X1345201Y954162D01*
X1344836Y954113D01*
X1344470Y954072D01*
X1344103Y954041D01*
X1343736Y954018D01*
X1343368Y954005D01*
X1343000Y954000D01*
X1342632Y954005D01*
X1342264Y954018D01*
X1341897Y954041D01*
X1341530Y954072D01*
X1341164Y954113D01*
X1340799Y954162D01*
X1340436Y954221D01*
X1340074Y954288D01*
X1339713Y954364D01*
X1339355Y954450D01*
X1338999Y954543D01*
X1338646Y954646D01*
X1338295Y954757D01*
X1337947Y954877D01*
X1337602Y955005D01*
X1337260Y955142D01*
X1336921Y955287D01*
X1336587Y955440D01*
X1336256Y955602D01*
X1335929Y955771D01*
X1335607Y955949D01*
X1335288Y956134D01*
X1334975Y956327D01*
X1334666Y956528D01*
X1334363Y956736D01*
X1334065Y956952D01*
X1333772Y957175D01*
X1333484Y957405D01*
X1333202Y957642D01*
X1332927Y957886D01*
X1332657Y958136D01*
X1332393Y958393D01*
X1332136Y958657D01*
X1331886Y958927D01*
X1331642Y959202D01*
X1331405Y959484D01*
X1331175Y959772D01*
X1330952Y960065D01*
X1330736Y960363D01*
X1330528Y960666D01*
X1330327Y960975D01*
X1330134Y961288D01*
X1329949Y961607D01*
X1329771Y961929D01*
X1329602Y962256D01*
X1329440Y962587D01*
X1329287Y962921D01*
X1329142Y963260D01*
X1329005Y963602D01*
X1328877Y963947D01*
X1328757Y964295D01*
X1328646Y964646D01*
X1328543Y964999D01*
X1328450Y965355D01*
X1328364Y965713D01*
X1328288Y966074D01*
X1328221Y966436D01*
X1328162Y966799D01*
X1328113Y967164D01*
X1328072Y967530D01*
X1328041Y967897D01*
X1328018Y968264D01*
X1328005Y968632D01*
X1328000Y969000D01*
X2096000Y975000D02*
X2096005Y975368D01*
X2096018Y975736D01*
X2096041Y976103D01*
X2096072Y976470D01*
X2096113Y976836D01*
X2096162Y977201D01*
X2096221Y977564D01*
X2096288Y977926D01*
X2096364Y978287D01*
X2096450Y978645D01*
X2096543Y979001D01*
X2096646Y979354D01*
X2096757Y979705D01*
X2096877Y980053D01*
X2097005Y980398D01*
X2097142Y980740D01*
X2097287Y981079D01*
X2097440Y981413D01*
X2097602Y981744D01*
X2097771Y982071D01*
X2097949Y982393D01*
X2098134Y982712D01*
X2098327Y983025D01*
X2098528Y983334D01*
X2098736Y983637D01*
X2098952Y983935D01*
X2099175Y984228D01*
X2099405Y984516D01*
X2099642Y984798D01*
X2099886Y985073D01*
X2100136Y985343D01*
X2100393Y985607D01*
X2100657Y985864D01*
X2100927Y986114D01*
X2101202Y986358D01*
X2101484Y986595D01*
X2101772Y986825D01*
X2102065Y987048D01*
X2102363Y987264D01*
X2102666Y987472D01*
X2102975Y987673D01*
X2103288Y987866D01*
X2103607Y988051D01*
X2103929Y988229D01*
X2104256Y988398D01*
X2104587Y988560D01*
X2104921Y988713D01*
X2105260Y988858D01*
X2105602Y988995D01*
X2105947Y989123D01*
X2106295Y989243D01*
X2106646Y989354D01*
X2106999Y989457D01*
X2107355Y989550D01*
X2107713Y989636D01*
X2108074Y989712D01*
X2108436Y989779D01*
X2108799Y989838D01*
X2109164Y989887D01*
X2109530Y989928D01*
X2109897Y989959D01*
X2110264Y989982D01*
X2110632Y989995D01*
X2111000Y990000D01*
X2111368Y989995D01*
X2111736Y989982D01*
X2112103Y989959D01*
X2112470Y989928D01*
X2112836Y989887D01*
X2113201Y989838D01*
X2113564Y989779D01*
X2113926Y989712D01*
X2114287Y989636D01*
X2114645Y989550D01*
X2115001Y989457D01*
X2115354Y989354D01*
X2115705Y989243D01*
X2116053Y989123D01*
X2116398Y988995D01*
X2116740Y988858D01*
X2117079Y988713D01*
X2117413Y988560D01*
X2117744Y988398D01*
X2118071Y988229D01*
X2118393Y988051D01*
X2118712Y987866D01*
X2119025Y987673D01*
X2119334Y987472D01*
X2119637Y987264D01*
X2119935Y987048D01*
X2120228Y986825D01*
X2120516Y986595D01*
X2120798Y986358D01*
X2121073Y986114D01*
X2121343Y985864D01*
X2121607Y985607D01*
X2121864Y985343D01*
X2122114Y985073D01*
X2122358Y984798D01*
X2122595Y984516D01*
X2122825Y984228D01*
X2123048Y983935D01*
X2123264Y983637D01*
X2123472Y983334D01*
X2123673Y983025D01*
X2123866Y982712D01*
X2124051Y982393D01*
X2124229Y982071D01*
X2124398Y981744D01*
X2124560Y981413D01*
X2124713Y981079D01*
X2124858Y980740D01*
X2124995Y980398D01*
X2125123Y980053D01*
X2125243Y979705D01*
X2125354Y979354D01*
X2125457Y979001D01*
X2125550Y978645D01*
X2125636Y978287D01*
X2125712Y977926D01*
X2125779Y977564D01*
X2125838Y977201D01*
X2125887Y976836D01*
X2125928Y976470D01*
X2125959Y976103D01*
X2125982Y975736D01*
X2125995Y975368D01*
X2126000Y975000D01*
X2125995Y974632D01*
X2125982Y974264D01*
X2125959Y973897D01*
X2125928Y973530D01*
X2125887Y973164D01*
X2125838Y972799D01*
X2125779Y972436D01*
X2125712Y972074D01*
X2125636Y971713D01*
X2125550Y971355D01*
X2125457Y970999D01*
X2125354Y970646D01*
X2125243Y970295D01*
X2125123Y969947D01*
X2124995Y969602D01*
X2124858Y969260D01*
X2124713Y968921D01*
X2124560Y968587D01*
X2124398Y968256D01*
X2124229Y967929D01*
X2124051Y967607D01*
X2123866Y967288D01*
X2123673Y966975D01*
X2123472Y966666D01*
X2123264Y966363D01*
X2123048Y966065D01*
X2122825Y965772D01*
X2122595Y965484D01*
X2122358Y965202D01*
X2122114Y964927D01*
X2121864Y964657D01*
X2121607Y964393D01*
X2121343Y964136D01*
X2121073Y963886D01*
X2120798Y963642D01*
X2120516Y963405D01*
X2120228Y963175D01*
X2119935Y962952D01*
X2119637Y962736D01*
X2119334Y962528D01*
X2119025Y962327D01*
X2118712Y962134D01*
X2118393Y961949D01*
X2118071Y961771D01*
X2117744Y961602D01*
X2117413Y961440D01*
X2117079Y961287D01*
X2116740Y961142D01*
X2116398Y961005D01*
X2116053Y960877D01*
X2115705Y960757D01*
X2115354Y960646D01*
X2115001Y960543D01*
X2114645Y960450D01*
X2114287Y960364D01*
X2113926Y960288D01*
X2113564Y960221D01*
X2113201Y960162D01*
X2112836Y960113D01*
X2112470Y960072D01*
X2112103Y960041D01*
X2111736Y960018D01*
X2111368Y960005D01*
X2111000Y960000D01*
X2110632Y960005D01*
X2110264Y960018D01*
X2109897Y960041D01*
X2109530Y960072D01*
X2109164Y960113D01*
X2108799Y960162D01*
X2108436Y960221D01*
X2108074Y960288D01*
X2107713Y960364D01*
X2107355Y960450D01*
X2106999Y960543D01*
X2106646Y960646D01*
X2106295Y960757D01*
X2105947Y960877D01*
X2105602Y961005D01*
X2105260Y961142D01*
X2104921Y961287D01*
X2104587Y961440D01*
X2104256Y961602D01*
X2103929Y961771D01*
X2103607Y961949D01*
X2103288Y962134D01*
X2102975Y962327D01*
X2102666Y962528D01*
X2102363Y962736D01*
X2102065Y962952D01*
X2101772Y963175D01*
X2101484Y963405D01*
X2101202Y963642D01*
X2100927Y963886D01*
X2100657Y964136D01*
X2100393Y964393D01*
X2100136Y964657D01*
X2099886Y964927D01*
X2099642Y965202D01*
X2099405Y965484D01*
X2099175Y965772D01*
X2098952Y966065D01*
X2098736Y966363D01*
X2098528Y966666D01*
X2098327Y966975D01*
X2098134Y967288D01*
X2097949Y967607D01*
X2097771Y967929D01*
X2097602Y968256D01*
X2097440Y968587D01*
X2097287Y968921D01*
X2097142Y969260D01*
X2097005Y969602D01*
X2096877Y969947D01*
X2096757Y970295D01*
X2096646Y970646D01*
X2096543Y970999D01*
X2096450Y971355D01*
X2096364Y971713D01*
X2096288Y972074D01*
X2096221Y972436D01*
X2096162Y972799D01*
X2096113Y973164D01*
X2096072Y973530D01*
X2096041Y973897D01*
X2096018Y974264D01*
X2096005Y974632D01*
X2096000Y975000D01*
X2102000Y1478000D02*
X2102005Y1478368D01*
X2102018Y1478736D01*
X2102041Y1479103D01*
X2102072Y1479470D01*
X2102113Y1479836D01*
X2102162Y1480201D01*
X2102221Y1480564D01*
X2102288Y1480926D01*
X2102364Y1481287D01*
X2102450Y1481645D01*
X2102543Y1482001D01*
X2102646Y1482354D01*
X2102757Y1482705D01*
X2102877Y1483053D01*
X2103005Y1483398D01*
X2103142Y1483740D01*
X2103287Y1484079D01*
X2103440Y1484413D01*
X2103602Y1484744D01*
X2103771Y1485071D01*
X2103949Y1485393D01*
X2104134Y1485712D01*
X2104327Y1486025D01*
X2104528Y1486334D01*
X2104736Y1486637D01*
X2104952Y1486935D01*
X2105175Y1487228D01*
X2105405Y1487516D01*
X2105642Y1487798D01*
X2105886Y1488073D01*
X2106136Y1488343D01*
X2106393Y1488607D01*
X2106657Y1488864D01*
X2106927Y1489114D01*
X2107202Y1489358D01*
X2107484Y1489595D01*
X2107772Y1489825D01*
X2108065Y1490048D01*
X2108363Y1490264D01*
X2108666Y1490472D01*
X2108975Y1490673D01*
X2109288Y1490866D01*
X2109607Y1491051D01*
X2109929Y1491229D01*
X2110256Y1491398D01*
X2110587Y1491560D01*
X2110921Y1491713D01*
X2111260Y1491858D01*
X2111602Y1491995D01*
X2111947Y1492123D01*
X2112295Y1492243D01*
X2112646Y1492354D01*
X2112999Y1492457D01*
X2113355Y1492550D01*
X2113713Y1492636D01*
X2114074Y1492712D01*
X2114436Y1492779D01*
X2114799Y1492838D01*
X2115164Y1492887D01*
X2115530Y1492928D01*
X2115897Y1492959D01*
X2116264Y1492982D01*
X2116632Y1492995D01*
X2117000Y1493000D01*
X2117368Y1492995D01*
X2117736Y1492982D01*
X2118103Y1492959D01*
X2118470Y1492928D01*
X2118836Y1492887D01*
X2119201Y1492838D01*
X2119564Y1492779D01*
X2119926Y1492712D01*
X2120287Y1492636D01*
X2120645Y1492550D01*
X2121001Y1492457D01*
X2121354Y1492354D01*
X2121705Y1492243D01*
X2122053Y1492123D01*
X2122398Y1491995D01*
X2122740Y1491858D01*
X2123079Y1491713D01*
X2123413Y1491560D01*
X2123744Y1491398D01*
X2124071Y1491229D01*
X2124393Y1491051D01*
X2124712Y1490866D01*
X2125025Y1490673D01*
X2125334Y1490472D01*
X2125637Y1490264D01*
X2125935Y1490048D01*
X2126228Y1489825D01*
X2126516Y1489595D01*
X2126798Y1489358D01*
X2127073Y1489114D01*
X2127343Y1488864D01*
X2127607Y1488607D01*
X2127864Y1488343D01*
X2128114Y1488073D01*
X2128358Y1487798D01*
X2128595Y1487516D01*
X2128825Y1487228D01*
X2129048Y1486935D01*
X2129264Y1486637D01*
X2129472Y1486334D01*
X2129673Y1486025D01*
X2129866Y1485712D01*
X2130051Y1485393D01*
X2130229Y1485071D01*
X2130398Y1484744D01*
X2130560Y1484413D01*
X2130713Y1484079D01*
X2130858Y1483740D01*
X2130995Y1483398D01*
X2131123Y1483053D01*
X2131243Y1482705D01*
X2131354Y1482354D01*
X2131457Y1482001D01*
X2131550Y1481645D01*
X2131636Y1481287D01*
X2131712Y1480926D01*
X2131779Y1480564D01*
X2131838Y1480201D01*
X2131887Y1479836D01*
X2131928Y1479470D01*
X2131959Y1479103D01*
X2131982Y1478736D01*
X2131995Y1478368D01*
X2132000Y1478000D01*
X2131995Y1477632D01*
X2131982Y1477264D01*
X2131959Y1476897D01*
X2131928Y1476530D01*
X2131887Y1476164D01*
X2131838Y1475799D01*
X2131779Y1475436D01*
X2131712Y1475074D01*
X2131636Y1474713D01*
X2131550Y1474355D01*
X2131457Y1473999D01*
X2131354Y1473646D01*
X2131243Y1473295D01*
X2131123Y1472947D01*
X2130995Y1472602D01*
X2130858Y1472260D01*
X2130713Y1471921D01*
X2130560Y1471587D01*
X2130398Y1471256D01*
X2130229Y1470929D01*
X2130051Y1470607D01*
X2129866Y1470288D01*
X2129673Y1469975D01*
X2129472Y1469666D01*
X2129264Y1469363D01*
X2129048Y1469065D01*
X2128825Y1468772D01*
X2128595Y1468484D01*
X2128358Y1468202D01*
X2128114Y1467927D01*
X2127864Y1467657D01*
X2127607Y1467393D01*
X2127343Y1467136D01*
X2127073Y1466886D01*
X2126798Y1466642D01*
X2126516Y1466405D01*
X2126228Y1466175D01*
X2125935Y1465952D01*
X2125637Y1465736D01*
X2125334Y1465528D01*
X2125025Y1465327D01*
X2124712Y1465134D01*
X2124393Y1464949D01*
X2124071Y1464771D01*
X2123744Y1464602D01*
X2123413Y1464440D01*
X2123079Y1464287D01*
X2122740Y1464142D01*
X2122398Y1464005D01*
X2122053Y1463877D01*
X2121705Y1463757D01*
X2121354Y1463646D01*
X2121001Y1463543D01*
X2120645Y1463450D01*
X2120287Y1463364D01*
X2119926Y1463288D01*
X2119564Y1463221D01*
X2119201Y1463162D01*
X2118836Y1463113D01*
X2118470Y1463072D01*
X2118103Y1463041D01*
X2117736Y1463018D01*
X2117368Y1463005D01*
X2117000Y1463000D01*
X2116632Y1463005D01*
X2116264Y1463018D01*
X2115897Y1463041D01*
X2115530Y1463072D01*
X2115164Y1463113D01*
X2114799Y1463162D01*
X2114436Y1463221D01*
X2114074Y1463288D01*
X2113713Y1463364D01*
X2113355Y1463450D01*
X2112999Y1463543D01*
X2112646Y1463646D01*
X2112295Y1463757D01*
X2111947Y1463877D01*
X2111602Y1464005D01*
X2111260Y1464142D01*
X2110921Y1464287D01*
X2110587Y1464440D01*
X2110256Y1464602D01*
X2109929Y1464771D01*
X2109607Y1464949D01*
X2109288Y1465134D01*
X2108975Y1465327D01*
X2108666Y1465528D01*
X2108363Y1465736D01*
X2108065Y1465952D01*
X2107772Y1466175D01*
X2107484Y1466405D01*
X2107202Y1466642D01*
X2106927Y1466886D01*
X2106657Y1467136D01*
X2106393Y1467393D01*
X2106136Y1467657D01*
X2105886Y1467927D01*
X2105642Y1468202D01*
X2105405Y1468484D01*
X2105175Y1468772D01*
X2104952Y1469065D01*
X2104736Y1469363D01*
X2104528Y1469666D01*
X2104327Y1469975D01*
X2104134Y1470288D01*
X2103949Y1470607D01*
X2103771Y1470929D01*
X2103602Y1471256D01*
X2103440Y1471587D01*
X2103287Y1471921D01*
X2103142Y1472260D01*
X2103005Y1472602D01*
X2102877Y1472947D01*
X2102757Y1473295D01*
X2102646Y1473646D01*
X2102543Y1473999D01*
X2102450Y1474355D01*
X2102364Y1474713D01*
X2102288Y1475074D01*
X2102221Y1475436D01*
X2102162Y1475799D01*
X2102113Y1476164D01*
X2102072Y1476530D01*
X2102041Y1476897D01*
X2102018Y1477264D01*
X2102005Y1477632D01*
X2102000Y1478000D01*
D11*
X979000Y1584000D02*
X979000Y537000D01*
X979000Y1584000D02*
X1381000Y1986000D01*
X2148000Y1986000D01*
X2485000Y1649000D01*
X2485000Y492000D01*
X2262000Y269000D01*
X1246000Y269000D01*
X979000Y536000D01*
D10*
X1572620Y1531040D02*
X1572625Y1531414D01*
X1572638Y1531788D01*
X1572661Y1532161D01*
X1572693Y1532534D01*
X1572735Y1532906D01*
X1572785Y1533276D01*
X1572844Y1533645D01*
X1572913Y1534013D01*
X1572990Y1534379D01*
X1573077Y1534743D01*
X1573172Y1535105D01*
X1573276Y1535464D01*
X1573389Y1535821D01*
X1573511Y1536174D01*
X1573641Y1536525D01*
X1573780Y1536872D01*
X1573927Y1537216D01*
X1574083Y1537556D01*
X1574247Y1537892D01*
X1574420Y1538224D01*
X1574600Y1538552D01*
X1574788Y1538875D01*
X1574984Y1539193D01*
X1575188Y1539507D01*
X1575400Y1539815D01*
X1575619Y1540118D01*
X1575846Y1540416D01*
X1576079Y1540708D01*
X1576320Y1540994D01*
X1576568Y1541275D01*
X1576822Y1541549D01*
X1577084Y1541816D01*
X1577351Y1542078D01*
X1577625Y1542332D01*
X1577906Y1542580D01*
X1578192Y1542821D01*
X1578484Y1543054D01*
X1578782Y1543281D01*
X1579085Y1543500D01*
X1579393Y1543712D01*
X1579707Y1543916D01*
X1580025Y1544112D01*
X1580348Y1544300D01*
X1580676Y1544480D01*
X1581008Y1544653D01*
X1581344Y1544817D01*
X1581684Y1544973D01*
X1582028Y1545120D01*
X1582375Y1545259D01*
X1582726Y1545389D01*
X1583079Y1545511D01*
X1583436Y1545624D01*
X1583795Y1545728D01*
X1584157Y1545823D01*
X1584521Y1545910D01*
X1584887Y1545987D01*
X1585255Y1546056D01*
X1585624Y1546115D01*
X1585994Y1546165D01*
X1586366Y1546207D01*
X1586739Y1546239D01*
X1587112Y1546262D01*
X1587486Y1546275D01*
X1587860Y1546280D01*
X1588234Y1546275D01*
X1588608Y1546262D01*
X1588981Y1546239D01*
X1589354Y1546207D01*
X1589726Y1546165D01*
X1590096Y1546115D01*
X1590465Y1546056D01*
X1590833Y1545987D01*
X1591199Y1545910D01*
X1591563Y1545823D01*
X1591925Y1545728D01*
X1592284Y1545624D01*
X1592641Y1545511D01*
X1592994Y1545389D01*
X1593345Y1545259D01*
X1593692Y1545120D01*
X1594036Y1544973D01*
X1594376Y1544817D01*
X1594712Y1544653D01*
X1595044Y1544480D01*
X1595372Y1544300D01*
X1595695Y1544112D01*
X1596013Y1543916D01*
X1596327Y1543712D01*
X1596635Y1543500D01*
X1596938Y1543281D01*
X1597236Y1543054D01*
X1597528Y1542821D01*
X1597814Y1542580D01*
X1598095Y1542332D01*
X1598369Y1542078D01*
X1598636Y1541816D01*
X1598898Y1541549D01*
X1599152Y1541275D01*
X1599400Y1540994D01*
X1599641Y1540708D01*
X1599874Y1540416D01*
X1600101Y1540118D01*
X1600320Y1539815D01*
X1600532Y1539507D01*
X1600736Y1539193D01*
X1600932Y1538875D01*
X1601120Y1538552D01*
X1601300Y1538224D01*
X1601473Y1537892D01*
X1601637Y1537556D01*
X1601793Y1537216D01*
X1601940Y1536872D01*
X1602079Y1536525D01*
X1602209Y1536174D01*
X1602331Y1535821D01*
X1602444Y1535464D01*
X1602548Y1535105D01*
X1602643Y1534743D01*
X1602730Y1534379D01*
X1602807Y1534013D01*
X1602876Y1533645D01*
X1602935Y1533276D01*
X1602985Y1532906D01*
X1603027Y1532534D01*
X1603059Y1532161D01*
X1603082Y1531788D01*
X1603095Y1531414D01*
X1603100Y1531040D01*
X1603095Y1530666D01*
X1603082Y1530292D01*
X1603059Y1529919D01*
X1603027Y1529546D01*
X1602985Y1529174D01*
X1602935Y1528804D01*
X1602876Y1528435D01*
X1602807Y1528067D01*
X1602730Y1527701D01*
X1602643Y1527337D01*
X1602548Y1526975D01*
X1602444Y1526616D01*
X1602331Y1526259D01*
X1602209Y1525906D01*
X1602079Y1525555D01*
X1601940Y1525208D01*
X1601793Y1524864D01*
X1601637Y1524524D01*
X1601473Y1524188D01*
X1601300Y1523856D01*
X1601120Y1523528D01*
X1600932Y1523205D01*
X1600736Y1522887D01*
X1600532Y1522573D01*
X1600320Y1522265D01*
X1600101Y1521962D01*
X1599874Y1521664D01*
X1599641Y1521372D01*
X1599400Y1521086D01*
X1599152Y1520805D01*
X1598898Y1520531D01*
X1598636Y1520264D01*
X1598369Y1520002D01*
X1598095Y1519748D01*
X1597814Y1519500D01*
X1597528Y1519259D01*
X1597236Y1519026D01*
X1596938Y1518799D01*
X1596635Y1518580D01*
X1596327Y1518368D01*
X1596013Y1518164D01*
X1595695Y1517968D01*
X1595372Y1517780D01*
X1595044Y1517600D01*
X1594712Y1517427D01*
X1594376Y1517263D01*
X1594036Y1517107D01*
X1593692Y1516960D01*
X1593345Y1516821D01*
X1592994Y1516691D01*
X1592641Y1516569D01*
X1592284Y1516456D01*
X1591925Y1516352D01*
X1591563Y1516257D01*
X1591199Y1516170D01*
X1590833Y1516093D01*
X1590465Y1516024D01*
X1590096Y1515965D01*
X1589726Y1515915D01*
X1589354Y1515873D01*
X1588981Y1515841D01*
X1588608Y1515818D01*
X1588234Y1515805D01*
X1587860Y1515800D01*
X1587486Y1515805D01*
X1587112Y1515818D01*
X1586739Y1515841D01*
X1586366Y1515873D01*
X1585994Y1515915D01*
X1585624Y1515965D01*
X1585255Y1516024D01*
X1584887Y1516093D01*
X1584521Y1516170D01*
X1584157Y1516257D01*
X1583795Y1516352D01*
X1583436Y1516456D01*
X1583079Y1516569D01*
X1582726Y1516691D01*
X1582375Y1516821D01*
X1582028Y1516960D01*
X1581684Y1517107D01*
X1581344Y1517263D01*
X1581008Y1517427D01*
X1580676Y1517600D01*
X1580348Y1517780D01*
X1580025Y1517968D01*
X1579707Y1518164D01*
X1579393Y1518368D01*
X1579085Y1518580D01*
X1578782Y1518799D01*
X1578484Y1519026D01*
X1578192Y1519259D01*
X1577906Y1519500D01*
X1577625Y1519748D01*
X1577351Y1520002D01*
X1577084Y1520264D01*
X1576822Y1520531D01*
X1576568Y1520805D01*
X1576320Y1521086D01*
X1576079Y1521372D01*
X1575846Y1521664D01*
X1575619Y1521962D01*
X1575400Y1522265D01*
X1575188Y1522573D01*
X1574984Y1522887D01*
X1574788Y1523205D01*
X1574600Y1523528D01*
X1574420Y1523856D01*
X1574247Y1524188D01*
X1574083Y1524524D01*
X1573927Y1524864D01*
X1573780Y1525208D01*
X1573641Y1525555D01*
X1573511Y1525906D01*
X1573389Y1526259D01*
X1573276Y1526616D01*
X1573172Y1526975D01*
X1573077Y1527337D01*
X1572990Y1527701D01*
X1572913Y1528067D01*
X1572844Y1528435D01*
X1572785Y1528804D01*
X1572735Y1529174D01*
X1572693Y1529546D01*
X1572661Y1529919D01*
X1572638Y1530292D01*
X1572625Y1530666D01*
X1572620Y1531040D01*
X1883770Y614100D02*
X1883775Y614474D01*
X1883788Y614848D01*
X1883811Y615221D01*
X1883843Y615594D01*
X1883885Y615966D01*
X1883935Y616336D01*
X1883994Y616705D01*
X1884063Y617073D01*
X1884140Y617439D01*
X1884227Y617803D01*
X1884322Y618165D01*
X1884426Y618524D01*
X1884539Y618881D01*
X1884661Y619234D01*
X1884791Y619585D01*
X1884930Y619932D01*
X1885077Y620276D01*
X1885233Y620616D01*
X1885397Y620952D01*
X1885570Y621284D01*
X1885750Y621612D01*
X1885938Y621935D01*
X1886134Y622253D01*
X1886338Y622567D01*
X1886550Y622875D01*
X1886769Y623178D01*
X1886996Y623476D01*
X1887229Y623768D01*
X1887470Y624054D01*
X1887718Y624335D01*
X1887972Y624609D01*
X1888234Y624876D01*
X1888501Y625138D01*
X1888775Y625392D01*
X1889056Y625640D01*
X1889342Y625881D01*
X1889634Y626114D01*
X1889932Y626341D01*
X1890235Y626560D01*
X1890543Y626772D01*
X1890857Y626976D01*
X1891175Y627172D01*
X1891498Y627360D01*
X1891826Y627540D01*
X1892158Y627713D01*
X1892494Y627877D01*
X1892834Y628033D01*
X1893178Y628180D01*
X1893525Y628319D01*
X1893876Y628449D01*
X1894229Y628571D01*
X1894586Y628684D01*
X1894945Y628788D01*
X1895307Y628883D01*
X1895671Y628970D01*
X1896037Y629047D01*
X1896405Y629116D01*
X1896774Y629175D01*
X1897144Y629225D01*
X1897516Y629267D01*
X1897889Y629299D01*
X1898262Y629322D01*
X1898636Y629335D01*
X1899010Y629340D01*
X1899384Y629335D01*
X1899758Y629322D01*
X1900131Y629299D01*
X1900504Y629267D01*
X1900876Y629225D01*
X1901246Y629175D01*
X1901615Y629116D01*
X1901983Y629047D01*
X1902349Y628970D01*
X1902713Y628883D01*
X1903075Y628788D01*
X1903434Y628684D01*
X1903791Y628571D01*
X1904144Y628449D01*
X1904495Y628319D01*
X1904842Y628180D01*
X1905186Y628033D01*
X1905526Y627877D01*
X1905862Y627713D01*
X1906194Y627540D01*
X1906522Y627360D01*
X1906845Y627172D01*
X1907163Y626976D01*
X1907477Y626772D01*
X1907785Y626560D01*
X1908088Y626341D01*
X1908386Y626114D01*
X1908678Y625881D01*
X1908964Y625640D01*
X1909245Y625392D01*
X1909519Y625138D01*
X1909786Y624876D01*
X1910048Y624609D01*
X1910302Y624335D01*
X1910550Y624054D01*
X1910791Y623768D01*
X1911024Y623476D01*
X1911251Y623178D01*
X1911470Y622875D01*
X1911682Y622567D01*
X1911886Y622253D01*
X1912082Y621935D01*
X1912270Y621612D01*
X1912450Y621284D01*
X1912623Y620952D01*
X1912787Y620616D01*
X1912943Y620276D01*
X1913090Y619932D01*
X1913229Y619585D01*
X1913359Y619234D01*
X1913481Y618881D01*
X1913594Y618524D01*
X1913698Y618165D01*
X1913793Y617803D01*
X1913880Y617439D01*
X1913957Y617073D01*
X1914026Y616705D01*
X1914085Y616336D01*
X1914135Y615966D01*
X1914177Y615594D01*
X1914209Y615221D01*
X1914232Y614848D01*
X1914245Y614474D01*
X1914250Y614100D01*
X1914245Y613726D01*
X1914232Y613352D01*
X1914209Y612979D01*
X1914177Y612606D01*
X1914135Y612234D01*
X1914085Y611864D01*
X1914026Y611495D01*
X1913957Y611127D01*
X1913880Y610761D01*
X1913793Y610397D01*
X1913698Y610035D01*
X1913594Y609676D01*
X1913481Y609319D01*
X1913359Y608966D01*
X1913229Y608615D01*
X1913090Y608268D01*
X1912943Y607924D01*
X1912787Y607584D01*
X1912623Y607248D01*
X1912450Y606916D01*
X1912270Y606588D01*
X1912082Y606265D01*
X1911886Y605947D01*
X1911682Y605633D01*
X1911470Y605325D01*
X1911251Y605022D01*
X1911024Y604724D01*
X1910791Y604432D01*
X1910550Y604146D01*
X1910302Y603865D01*
X1910048Y603591D01*
X1909786Y603324D01*
X1909519Y603062D01*
X1909245Y602808D01*
X1908964Y602560D01*
X1908678Y602319D01*
X1908386Y602086D01*
X1908088Y601859D01*
X1907785Y601640D01*
X1907477Y601428D01*
X1907163Y601224D01*
X1906845Y601028D01*
X1906522Y600840D01*
X1906194Y600660D01*
X1905862Y600487D01*
X1905526Y600323D01*
X1905186Y600167D01*
X1904842Y600020D01*
X1904495Y599881D01*
X1904144Y599751D01*
X1903791Y599629D01*
X1903434Y599516D01*
X1903075Y599412D01*
X1902713Y599317D01*
X1902349Y599230D01*
X1901983Y599153D01*
X1901615Y599084D01*
X1901246Y599025D01*
X1900876Y598975D01*
X1900504Y598933D01*
X1900131Y598901D01*
X1899758Y598878D01*
X1899384Y598865D01*
X1899010Y598860D01*
X1898636Y598865D01*
X1898262Y598878D01*
X1897889Y598901D01*
X1897516Y598933D01*
X1897144Y598975D01*
X1896774Y599025D01*
X1896405Y599084D01*
X1896037Y599153D01*
X1895671Y599230D01*
X1895307Y599317D01*
X1894945Y599412D01*
X1894586Y599516D01*
X1894229Y599629D01*
X1893876Y599751D01*
X1893525Y599881D01*
X1893178Y600020D01*
X1892834Y600167D01*
X1892494Y600323D01*
X1892158Y600487D01*
X1891826Y600660D01*
X1891498Y600840D01*
X1891175Y601028D01*
X1890857Y601224D01*
X1890543Y601428D01*
X1890235Y601640D01*
X1889932Y601859D01*
X1889634Y602086D01*
X1889342Y602319D01*
X1889056Y602560D01*
X1888775Y602808D01*
X1888501Y603062D01*
X1888234Y603324D01*
X1887972Y603591D01*
X1887718Y603865D01*
X1887470Y604146D01*
X1887229Y604432D01*
X1886996Y604724D01*
X1886769Y605022D01*
X1886550Y605325D01*
X1886338Y605633D01*
X1886134Y605947D01*
X1885938Y606265D01*
X1885750Y606588D01*
X1885570Y606916D01*
X1885397Y607248D01*
X1885233Y607584D01*
X1885077Y607924D01*
X1884930Y608268D01*
X1884791Y608615D01*
X1884661Y608966D01*
X1884539Y609319D01*
X1884426Y609676D01*
X1884322Y610035D01*
X1884227Y610397D01*
X1884140Y610761D01*
X1884063Y611127D01*
X1883994Y611495D01*
X1883935Y611864D01*
X1883885Y612234D01*
X1883843Y612606D01*
X1883811Y612979D01*
X1883788Y613352D01*
X1883775Y613726D01*
X1883770Y614100D01*
M02*
