M48
;GenerationSoftware,Autodesk,EAGLE,9.6.1*%
;CreationDate,2022-07-05T07:49:44Z*%
FMAT,2
ICI,OFF
METRIC,TZ,000.000
T7C0.508
T6C0.813
T5C1.000
T4C1.016
T3C1.194
T2C3.000
T1C3.048
%
G90
M71
T1
X158786Y153104
X189901Y61410
T2
X134000Y148700
X134300Y96900
X211100Y97500
X211700Y147800
T3
X208560Y48000
X129500Y173280
X129500Y168280
X203560Y48000
X130680Y47890
X224580Y173450
X224580Y168450
X224780Y52010
X224780Y47010
X130680Y52890
X193900Y47900
X188900Y47900
T4
X105880Y118530
X117790Y104830
X115250Y104830
X112710Y104830
X110170Y104830
X107630Y104830
X105090Y104830
X170630Y176570
X173170Y176570
X175710Y176570
X170370Y187770
X172910Y187770
X175450Y187770
X176380Y112300
X108470Y65440
X111010Y65440
X113550Y65440
X116090Y65440
X110800Y158940
X113340Y158940
X115880Y158940
X118420Y158940
X231830Y66440
X234370Y66440
X236910Y66440
X239450Y66440
X230560Y157940
X233100Y157940
X235640Y157940
X238180Y157940
X110960Y118530
X116040Y118530
X118580Y118530
X229060Y104890
X231600Y104890
X234140Y104890
X236680Y104890
X113500Y118530
X241760Y104890
X226350Y117090
X228890Y117090
X231430Y117090
X233970Y117090
X236510Y117090
X239050Y117090
X108420Y118530
X239220Y104890
X200420Y164800
X202960Y164800
X205500Y164800
X208040Y164800
X210580Y164800
X166220Y112300
X168760Y112300
X171300Y112300
X173840Y112300
T5
X170737Y90249
X173277Y87709
X173277Y90249
X175817Y87709
X175817Y90249
X178357Y87709
X178357Y90249
X180897Y87709
X180897Y90249
X183437Y87709
X183437Y90249
X165657Y87709
X172012Y83381
X174552Y83381
X177092Y83381
X179632Y83381
X182172Y83381
X184712Y83381
X169472Y83381
X166932Y83381
X164392Y83381
X161852Y83381
X146721Y113162
X149261Y113162
X149261Y115702
X146721Y115702
X146721Y118242
X149261Y118242
X146721Y110622
X149261Y110622
X149261Y108082
X146721Y108082
X146721Y105542
X149261Y105542
X197503Y113201
X197503Y115741
X200043Y115741
X200043Y118281
X197503Y118281
X200043Y110661
X197503Y110661
X197503Y108121
X200043Y108121
X200043Y105581
X197503Y105581
X200043Y113201
X146604Y136086
X149144Y136086
X146604Y138626
X149144Y138626
X179614Y161486
X149144Y141166
X146604Y143706
X146604Y146246
X146604Y148786
X149144Y143706
X149144Y146246
X149144Y148786
X146604Y133546
X149144Y133546
X149144Y131006
X146604Y131006
X146604Y128466
X149144Y128466
X146604Y125926
X149144Y125926
X149144Y123386
X146604Y123386
X197394Y136086
X199934Y136086
X199934Y138626
X197394Y138626
X197394Y141166
X199934Y141166
X199934Y143706
X199934Y146246
X199934Y148786
X197394Y143706
X197394Y146246
X197394Y148786
X199934Y123386
X197394Y123386
X197394Y125926
X199934Y125926
X199934Y128466
X199934Y131006
X199934Y133546
X197394Y128466
X197394Y131006
X197394Y133546
X151671Y158207
X153468Y156411
X153468Y160003
X155264Y158207
X149875Y156411
X151671Y154615
X148079Y154615
X149875Y152819
X193064Y160005
X191268Y158208
X194860Y158208
X193064Y156412
X196656Y156412
X194860Y154616
X198452Y154616
X196656Y152820
X191424Y88356
X193220Y86560
X193220Y90152
X195016Y88356
X195016Y91948
X196812Y93744
X198608Y91948
X156754Y76650
X159294Y76650
X156754Y74110
X159294Y74110
X156754Y71570
X159294Y71570
X156754Y69030
X159294Y69030
X187234Y76650
X189774Y76650
X187234Y74110
X189774Y74110
X187234Y71570
X189774Y71570
X187234Y69030
X189774Y69030
X146604Y141166
X161834Y161486
X161834Y158946
X164374Y161486
X166914Y158946
X166914Y161486
X169454Y158946
X169454Y161486
X171994Y158946
X171994Y161486
X174534Y158946
X174534Y161486
X177074Y158946
X177074Y161486
X179614Y158946
X182154Y158946
X182154Y161486
X164374Y158946
X184694Y161486
X184694Y158946
X163117Y90249
X163117Y87709
X165657Y90249
X168197Y87709
X168197Y90249
X170737Y87709
X196812Y90152
T6
X187710Y176290
X190250Y176290
X186270Y188090
X188810Y188090
X156270Y176490
X158810Y176490
X156270Y187710
X158810Y187710
T7
X196047Y119488
X227052Y110187
X192231Y80136
X198909Y86814
X194139Y182452
X114003Y155979
X189607Y85145
X145724Y152163
X134037Y108279
X202009Y162896
M30