G04 EAGLE Gerber RS-274X export*
G75*
%MOMM*%
%FSLAX34Y34*%
%LPD*%
%INTop Copper*%
%IPPOS*%
%AMOC8*
5,1,8,0,0,1.08239X$1,22.5*%
G01*
%ADD10C,1.790700*%
%ADD11C,1.524000*%
%ADD12P,1.632244X8X22.500000*%
%ADD13P,1.632244X8X202.500000*%
%ADD14P,1.632244X8X67.500000*%
%ADD15P,1.632244X8X337.500000*%
%ADD16P,1.732040X8X22.500000*%
%ADD17C,0.700000*%
%ADD18C,0.914400*%
%ADD19C,2.000000*%


D10*
X1286047Y1732800D02*
X1303954Y1732800D01*
X1303954Y1682800D02*
X1286047Y1682800D01*
X1297847Y528900D02*
X1315754Y528900D01*
X1315754Y478900D02*
X1297847Y478900D01*
X2236847Y1734500D02*
X2254754Y1734500D01*
X2254754Y1684500D02*
X2236847Y1684500D01*
X2238847Y520100D02*
X2256754Y520100D01*
X2256754Y470100D02*
X2238847Y470100D01*
D11*
X1706300Y1758080D02*
X1706300Y1773320D01*
X1731700Y1773320D02*
X1731700Y1758080D01*
X1757100Y1758080D02*
X1757100Y1773320D01*
X1703700Y1870080D02*
X1703700Y1885320D01*
X1729100Y1885320D02*
X1729100Y1870080D01*
X1754500Y1870080D02*
X1754500Y1885320D01*
D10*
X2035600Y488954D02*
X2035600Y471047D01*
X2085600Y471047D02*
X2085600Y488954D01*
D11*
X1084700Y646780D02*
X1084700Y662020D01*
X1110100Y662020D02*
X1110100Y646780D01*
X1135500Y646780D02*
X1135500Y662020D01*
X1160900Y662020D02*
X1160900Y646780D01*
X1108000Y1581780D02*
X1108000Y1597020D01*
X1133400Y1597020D02*
X1133400Y1581780D01*
X1158800Y1581780D02*
X1158800Y1597020D01*
X1184200Y1597020D02*
X1184200Y1581780D01*
X2318300Y672020D02*
X2318300Y656780D01*
X2343700Y656780D02*
X2343700Y672020D01*
X2369100Y672020D02*
X2369100Y656780D01*
X2394500Y656780D02*
X2394500Y672020D01*
X2305600Y1571780D02*
X2305600Y1587020D01*
X2331000Y1587020D02*
X2331000Y1571780D01*
X2356400Y1571780D02*
X2356400Y1587020D01*
X2381800Y1587020D02*
X2381800Y1571780D01*
D12*
X1618340Y1614860D03*
X1618340Y1589460D03*
X1643740Y1614860D03*
X1669140Y1589460D03*
X1669140Y1614860D03*
X1694540Y1589460D03*
X1694540Y1614860D03*
X1719940Y1589460D03*
X1719940Y1614860D03*
X1745340Y1589460D03*
X1745340Y1614860D03*
X1770740Y1589460D03*
X1770740Y1614860D03*
X1796140Y1589460D03*
X1796140Y1614860D03*
X1821540Y1589460D03*
X1821540Y1614860D03*
X1643740Y1589460D03*
X1846940Y1614860D03*
X1846940Y1589460D03*
X1631167Y902492D03*
X1631167Y877092D03*
X1656567Y902492D03*
X1681967Y877092D03*
X1681967Y902492D03*
X1707367Y877092D03*
X1707367Y902492D03*
X1732767Y877092D03*
X1732767Y902492D03*
X1758167Y877092D03*
X1758167Y902492D03*
X1783567Y877092D03*
X1783567Y902492D03*
X1808967Y877092D03*
X1808967Y902492D03*
X1834367Y877092D03*
X1834367Y902492D03*
X1656567Y877092D03*
X1720118Y833810D03*
X1745518Y833810D03*
X1770918Y833810D03*
X1796318Y833810D03*
X1821718Y833810D03*
X1847118Y833810D03*
X1694718Y833810D03*
X1669318Y833810D03*
X1643918Y833810D03*
X1618518Y833810D03*
X1467210Y1131625D03*
X1492610Y1131625D03*
X1492610Y1157025D03*
X1467210Y1157025D03*
X1467210Y1182425D03*
X1492610Y1182425D03*
X1467210Y1106225D03*
X1492610Y1106225D03*
X1492610Y1080825D03*
X1467210Y1080825D03*
X1467210Y1055425D03*
X1492610Y1055425D03*
D13*
X1975032Y1132006D03*
X1975032Y1157406D03*
X2000432Y1157406D03*
X2000432Y1182806D03*
X1975032Y1182806D03*
X2000432Y1106606D03*
X1975032Y1106606D03*
X1975032Y1081206D03*
X2000432Y1081206D03*
X2000432Y1055806D03*
X1975032Y1055806D03*
X2000432Y1132006D03*
D12*
X1466042Y1360860D03*
X1491442Y1360860D03*
X1466042Y1386260D03*
X1491442Y1386260D03*
X1466042Y1411660D03*
X1491442Y1411660D03*
X1466042Y1437060D03*
X1466042Y1462460D03*
X1466042Y1487860D03*
X1491442Y1437060D03*
X1491442Y1462460D03*
X1491442Y1487860D03*
X1466042Y1335460D03*
X1491442Y1335460D03*
X1491442Y1310060D03*
X1466042Y1310060D03*
X1466042Y1284660D03*
X1491442Y1284660D03*
X1466042Y1259260D03*
X1491442Y1259260D03*
X1491442Y1233860D03*
X1466042Y1233860D03*
X1973940Y1360860D03*
X1999340Y1360860D03*
X1999340Y1386260D03*
X1973940Y1386260D03*
X1973940Y1411660D03*
X1999340Y1411660D03*
X1999340Y1437060D03*
X1999340Y1462460D03*
X1999340Y1487860D03*
X1973940Y1437060D03*
X1973940Y1462460D03*
X1973940Y1487860D03*
X1999340Y1233860D03*
X1973940Y1233860D03*
X1973940Y1259260D03*
X1999340Y1259260D03*
X1999340Y1284660D03*
X1999340Y1310060D03*
X1999340Y1335460D03*
X1973940Y1284660D03*
X1973940Y1310060D03*
X1973940Y1335460D03*
D14*
X1516715Y1582071D03*
X1534675Y1564111D03*
X1534675Y1600032D03*
X1552636Y1582071D03*
X1498754Y1564111D03*
X1516715Y1546150D03*
X1480794Y1546150D03*
X1498754Y1528190D03*
D15*
X1930642Y1600045D03*
X1912682Y1582085D03*
X1948603Y1582085D03*
X1930642Y1564124D03*
X1966563Y1564124D03*
X1948603Y1546164D03*
X1984524Y1546164D03*
X1966563Y1528203D03*
D14*
X1914239Y883561D03*
X1932199Y865601D03*
X1932199Y901522D03*
X1950160Y883561D03*
X1950160Y919482D03*
X1968120Y901522D03*
X1968120Y937443D03*
X1986081Y919482D03*
D12*
X1567540Y766500D03*
X1592940Y766500D03*
X1567540Y741100D03*
X1592940Y741100D03*
X1567540Y715700D03*
X1592940Y715700D03*
X1567540Y690300D03*
X1592940Y690300D03*
X1872340Y766500D03*
X1897740Y766500D03*
X1872340Y741100D03*
X1897740Y741100D03*
X1872340Y715700D03*
X1897740Y715700D03*
X1872340Y690300D03*
X1897740Y690300D03*
D16*
X1562700Y1764900D03*
X1588100Y1764900D03*
X1562700Y1877100D03*
X1588100Y1877100D03*
D11*
X1050900Y1055920D02*
X1050900Y1040680D01*
X1076300Y1040680D02*
X1076300Y1055920D01*
X1101700Y1055920D02*
X1101700Y1040680D01*
X1127100Y1040680D02*
X1127100Y1055920D01*
X1152500Y1055920D02*
X1152500Y1040680D01*
X1177900Y1040680D02*
X1177900Y1055920D01*
X1058800Y1177680D02*
X1058800Y1192920D01*
X1084200Y1192920D02*
X1084200Y1177680D01*
X1109600Y1177680D02*
X1109600Y1192920D01*
X1135000Y1192920D02*
X1135000Y1177680D01*
X1160400Y1177680D02*
X1160400Y1192920D01*
X1185800Y1192920D02*
X1185800Y1177680D01*
X2290600Y1056520D02*
X2290600Y1041280D01*
X2316000Y1041280D02*
X2316000Y1056520D01*
X2341400Y1056520D02*
X2341400Y1041280D01*
X2366800Y1041280D02*
X2366800Y1056520D01*
X2392200Y1056520D02*
X2392200Y1041280D01*
X2417600Y1041280D02*
X2417600Y1056520D01*
X2263500Y1163280D02*
X2263500Y1178520D01*
X2288900Y1178520D02*
X2288900Y1163280D01*
X2314300Y1163280D02*
X2314300Y1178520D01*
X2339700Y1178520D02*
X2339700Y1163280D01*
X2365100Y1163280D02*
X2365100Y1178520D01*
X2390500Y1178520D02*
X2390500Y1163280D01*
D16*
X1877100Y1762900D03*
X1902500Y1762900D03*
X1862700Y1880900D03*
X1888100Y1880900D03*
D10*
X1889000Y487954D02*
X1889000Y470047D01*
X1939000Y470047D02*
X1939000Y487954D01*
D11*
X2004200Y1640380D02*
X2004200Y1655620D01*
X2029600Y1655620D02*
X2029600Y1640380D01*
X2055000Y1640380D02*
X2055000Y1655620D01*
X2080400Y1655620D02*
X2080400Y1640380D01*
X2105800Y1640380D02*
X2105800Y1655620D01*
X1662200Y1130620D02*
X1662200Y1115380D01*
X1687600Y1115380D02*
X1687600Y1130620D01*
X1713000Y1130620D02*
X1713000Y1115380D01*
X1738400Y1115380D02*
X1738400Y1130620D01*
X1763800Y1130620D02*
X1763800Y1115380D01*
D17*
X1950930Y918225D02*
X1967625Y901530D01*
X1968120Y901522D01*
X1950930Y918225D02*
X1950160Y919482D01*
X1950930Y920610D02*
X1967625Y937305D01*
X1968120Y937443D01*
X1950930Y920610D02*
X1950160Y919482D01*
X1643265Y834750D02*
X1619415Y834750D01*
X1618518Y833810D01*
X1643265Y834750D02*
X1643918Y833810D01*
X1645650Y834750D02*
X1667115Y834750D01*
X1669318Y833810D01*
X1645650Y834750D02*
X1643918Y833810D01*
X1671885Y834750D02*
X1693350Y834750D01*
X1694718Y833810D01*
X1671885Y834750D02*
X1669318Y833810D01*
X1721970Y834750D02*
X1743435Y834750D01*
X1721970Y834750D02*
X1720118Y833810D01*
X1743435Y834750D02*
X1745518Y833810D01*
X1748205Y834750D02*
X1769670Y834750D01*
X1770918Y833810D01*
X1748205Y834750D02*
X1745518Y833810D01*
X1798290Y834750D02*
X1819755Y834750D01*
X1798290Y834750D02*
X1796318Y833810D01*
X1819755Y834750D02*
X1821718Y833810D01*
X1824525Y834750D02*
X1845990Y834750D01*
X1847118Y833810D01*
X1824525Y834750D02*
X1821718Y833810D01*
X1793520Y834750D02*
X1772055Y834750D01*
X1770918Y833810D01*
X1793520Y834750D02*
X1796318Y833810D01*
X1717200Y834750D02*
X1695735Y834750D01*
X1694718Y833810D01*
X1717200Y834750D02*
X1720118Y833810D01*
X1834065Y877680D02*
X1834065Y901530D01*
X1834065Y877680D02*
X1834367Y877092D01*
X1834065Y901530D02*
X1834367Y902492D01*
X1631340Y901530D02*
X1631340Y877680D01*
X1631167Y877092D01*
X1631340Y901530D02*
X1631167Y902492D01*
X1848375Y1590795D02*
X1848375Y1614645D01*
X1848375Y1590795D02*
X1846940Y1589460D01*
X1848375Y1614645D02*
X1846940Y1614860D01*
X1619415Y1614645D02*
X1619415Y1590795D01*
X1618340Y1589460D01*
X1619415Y1614645D02*
X1618340Y1614860D01*
X1967625Y1528785D02*
X1984320Y1545480D01*
X1967625Y1528785D02*
X1966563Y1528203D01*
X1984320Y1545480D02*
X1984524Y1546164D01*
X1929465Y1600335D02*
X1912770Y1583640D01*
X1912682Y1582085D01*
X1929465Y1600335D02*
X1930642Y1600045D01*
X1552635Y1583640D02*
X1535940Y1600335D01*
X1552635Y1583640D02*
X1552636Y1582071D01*
X1535940Y1600335D02*
X1534675Y1600032D01*
X1481085Y1545480D02*
X1497780Y1528785D01*
X1498754Y1528190D01*
X1481085Y1545480D02*
X1480794Y1546150D01*
X1490625Y1488240D02*
X1466775Y1488240D01*
X1466042Y1487860D01*
X1490625Y1488240D02*
X1491442Y1487860D01*
X1490625Y1235430D02*
X1466775Y1235430D01*
X1466042Y1233860D01*
X1490625Y1235430D02*
X1491442Y1233860D01*
X1490625Y1182960D02*
X1469160Y1182960D01*
X1467210Y1182425D01*
X1490625Y1182960D02*
X1492610Y1182425D01*
X1490625Y1056555D02*
X1469160Y1056555D01*
X1467210Y1055425D01*
X1490625Y1056555D02*
X1492610Y1055425D01*
X1974780Y1488240D02*
X1998630Y1488240D01*
X1974780Y1488240D02*
X1973940Y1487860D01*
X1998630Y1488240D02*
X1999340Y1487860D01*
X1998630Y1235430D02*
X1974780Y1235430D01*
X1973940Y1233860D01*
X1998630Y1235430D02*
X1999340Y1233860D01*
X1998630Y1182960D02*
X1977165Y1182960D01*
X1975032Y1182806D01*
X1998630Y1182960D02*
X2000432Y1182806D01*
X1998630Y1056555D02*
X1977165Y1056555D01*
X1975032Y1055806D01*
X1998630Y1056555D02*
X2000432Y1055806D01*
X2001015Y1462005D02*
X2091645Y1462005D01*
X2342070Y1211580D01*
X2392155Y1211580D01*
X2432700Y1171035D01*
X2432700Y1035090D01*
X2239515Y841905D01*
X1922310Y841905D01*
X1900845Y863370D01*
X1855530Y863370D01*
X1845990Y853830D01*
X1619415Y853830D01*
X1602720Y870525D01*
X1602720Y942075D01*
X1533555Y1011240D01*
X1428615Y1011240D01*
X1345140Y1094715D01*
X1223505Y1094715D01*
X1178190Y1049400D01*
X1999340Y1462460D02*
X2001015Y1462005D01*
X1178190Y1049400D02*
X1177900Y1048300D01*
X1972395Y1454850D02*
X1972395Y1462005D01*
X1972395Y1454850D02*
X1779210Y1261665D01*
X1769670Y1099485D02*
X1609875Y1099485D01*
X1500165Y1209195D01*
X1204425Y1209195D01*
X1197270Y1216350D01*
X1061325Y1216350D01*
X1044630Y1199655D01*
X1044630Y1082790D01*
X1078020Y1049400D01*
X1972395Y1462005D02*
X1973940Y1462460D01*
X1078020Y1049400D02*
X1076300Y1048300D01*
X1779210Y1109025D02*
X1779210Y1261665D01*
X1779210Y1109025D02*
X1769670Y1099485D01*
X1972395Y1431000D02*
X1972395Y1435770D01*
X1972395Y1431000D02*
X1922310Y1380915D01*
X1922310Y1237815D01*
X1774440Y1089945D01*
X1605105Y1089945D01*
X1495395Y1199655D01*
X1199655Y1199655D01*
X1192500Y1206810D01*
X1101870Y1206810D01*
X1085175Y1190115D01*
X1085175Y1185345D01*
X1972395Y1435770D02*
X1973940Y1437060D01*
X1085175Y1185345D02*
X1084200Y1185300D01*
X1960470Y1194885D02*
X1960470Y1111410D01*
X1793520Y944460D01*
X1655190Y944460D01*
X1559790Y1039860D01*
X1462005Y1039860D01*
X1318905Y1182960D01*
X1187730Y1182960D01*
X1185800Y1185300D01*
D18*
X1960470Y1194885D03*
D17*
X1972395Y1404765D02*
X1972395Y1409535D01*
X1972395Y1404765D02*
X1948545Y1380915D01*
X1948545Y1223505D01*
X1974780Y1197270D01*
X2175120Y1197270D01*
X2270520Y1101870D01*
X1972395Y1409535D02*
X1973940Y1411660D01*
D18*
X2270520Y1101870D03*
D17*
X2129805Y1409535D02*
X2001015Y1409535D01*
X2129805Y1409535D02*
X2337300Y1202040D01*
X2387385Y1202040D01*
X2416005Y1173420D01*
X2416005Y1049400D01*
X2001015Y1409535D02*
X1999340Y1411660D01*
X2416005Y1049400D02*
X2417600Y1048900D01*
X1972395Y1378530D02*
X1972395Y1385685D01*
X1972395Y1378530D02*
X1958085Y1364220D01*
X1958085Y1228275D01*
X1979550Y1206810D01*
X2198970Y1206810D01*
X2256210Y1149570D01*
X2270520Y1149570D01*
X2289600Y1168650D01*
X1973940Y1386260D02*
X1972395Y1385685D01*
X2288900Y1170900D02*
X2289600Y1168650D01*
X2065410Y1385685D02*
X2001015Y1385685D01*
X2065410Y1385685D02*
X2258595Y1192500D01*
X2370690Y1192500D01*
X2392155Y1171035D01*
X2001015Y1385685D02*
X1999340Y1386260D01*
X2390500Y1170900D02*
X2392155Y1171035D01*
X1681425Y875295D02*
X1674270Y875295D01*
X1662345Y863370D01*
X1624185Y863370D01*
X1612260Y875295D01*
X1612260Y946845D01*
X1538325Y1020780D01*
X1433385Y1020780D01*
X1349910Y1104255D01*
X1180575Y1104255D01*
X1125720Y1049400D01*
X1681967Y877092D02*
X1681425Y875295D01*
X1127100Y1048300D02*
X1125720Y1049400D01*
X1555020Y1030320D02*
X1681425Y903915D01*
X1555020Y1030320D02*
X1457235Y1030320D01*
X1323675Y1163880D01*
X1154340Y1163880D01*
X1135260Y1182960D01*
X1681425Y903915D02*
X1681967Y902492D01*
X1135260Y1182960D02*
X1135000Y1185300D01*
X1707660Y875295D02*
X1714815Y875295D01*
X1726740Y863370D01*
X1841220Y863370D01*
X1850760Y872910D01*
X1905615Y872910D01*
X1927080Y851445D01*
X2172735Y851445D01*
X2368305Y1047015D01*
X1707367Y877092D02*
X1707660Y875295D01*
X2366800Y1048900D02*
X2368305Y1047015D01*
X1714815Y903915D02*
X1707660Y903915D01*
X1714815Y903915D02*
X1745820Y934920D01*
X1946160Y934920D01*
X2101185Y1089945D01*
X2275290Y1089945D01*
X2339685Y1154340D01*
X2339685Y1168650D01*
X1707660Y903915D02*
X1707367Y902492D01*
X2339685Y1168650D02*
X2339700Y1170900D01*
X1950930Y1524015D02*
X1950930Y1545480D01*
X1950930Y1524015D02*
X1960470Y1514475D01*
X1972395Y1514475D01*
X1950930Y1545480D02*
X1948603Y1546164D01*
D18*
X2020095Y1628955D03*
D17*
X1688580Y1242585D02*
X1688580Y1123335D01*
X1688580Y1242585D02*
X1960470Y1514475D01*
X1688580Y1123335D02*
X1687600Y1123000D01*
X2020095Y1562175D02*
X2020095Y1628955D01*
X2020095Y1562175D02*
X1972395Y1514475D01*
X1950930Y1583640D02*
X1950930Y1593180D01*
X1955700Y1597950D02*
X2003400Y1645650D01*
X1955700Y1597950D02*
X1950930Y1593180D01*
X1950930Y1583640D02*
X1948603Y1582085D01*
X2003400Y1645650D02*
X2004200Y1648000D01*
X1662345Y1352295D02*
X1662345Y1123335D01*
X1662345Y1352295D02*
X1924695Y1614645D01*
X1939005Y1614645D01*
X1955700Y1597950D01*
X1662345Y1123335D02*
X1662200Y1123000D01*
X1340370Y1082790D02*
X1340370Y1008855D01*
X1111410Y779895D01*
X1111410Y655875D01*
X1110100Y654400D01*
D18*
X1340370Y1082790D03*
D17*
X1516860Y1583640D02*
X1516860Y1602720D01*
X1528785Y1614645D01*
X1540710Y1614645D01*
X1566945Y1588410D01*
X1566945Y1552635D01*
X1543095Y1528785D01*
X1543095Y1264050D01*
X1497780Y1218735D01*
X1209195Y1218735D01*
X1202040Y1225890D01*
X1056555Y1225890D01*
X1035090Y1204425D01*
X1035090Y703575D01*
X1082790Y655875D01*
X1516715Y1582071D02*
X1516860Y1583640D01*
X1082790Y655875D02*
X1084700Y654400D01*
X1280745Y1438155D02*
X1464390Y1438155D01*
X1280745Y1438155D02*
X1135260Y1583640D01*
X1135260Y1588410D01*
X1464390Y1438155D02*
X1466042Y1437060D01*
X1135260Y1588410D02*
X1133400Y1589400D01*
X1533555Y1562175D02*
X1533555Y1528785D01*
X1509705Y1504935D01*
X1364220Y1504935D01*
X1256895Y1612260D01*
X1128105Y1612260D01*
X1106640Y1590795D01*
X1533555Y1562175D02*
X1534675Y1564111D01*
X1108000Y1589400D02*
X1106640Y1590795D01*
X1457235Y1586025D02*
X1457235Y1521630D01*
X1457235Y1586025D02*
X1566945Y1695735D01*
X2120265Y1695735D01*
X2213280Y1602720D01*
X2311065Y1602720D01*
X2332530Y1581255D01*
X2331000Y1579400D01*
D18*
X1457235Y1521630D03*
D17*
X1514475Y1524015D02*
X1514475Y1545480D01*
X1514475Y1524015D02*
X1504935Y1514475D01*
X1493010Y1514475D01*
X1466775Y1540710D01*
X1466775Y1581255D01*
X1571715Y1686195D01*
X2115495Y1686195D01*
X2220435Y1581255D01*
X2303910Y1581255D01*
X1516715Y1546150D02*
X1514475Y1545480D01*
X2303910Y1581255D02*
X2305600Y1579400D01*
X1896075Y851445D02*
X2105955Y641565D01*
X2322990Y641565D01*
X2344455Y663030D01*
X2343700Y664400D01*
D18*
X1896075Y851445D03*
D17*
X1500165Y1564560D02*
X1500165Y1600335D01*
X1576485Y1676655D01*
X2110725Y1676655D01*
X2437470Y1349910D01*
X2437470Y1180575D01*
X2442240Y1175805D01*
X2442240Y985005D01*
X2320605Y863370D01*
X2320605Y665415D01*
X1500165Y1564560D02*
X1498754Y1564111D01*
X2318300Y664400D02*
X2320605Y665415D01*
X2034405Y479385D02*
X1939005Y479385D01*
X1939000Y479000D01*
X2034405Y479385D02*
X2035600Y480000D01*
X1135260Y653490D02*
X1125720Y643950D01*
X1125720Y641565D01*
X1116180Y632025D01*
X1078020Y632025D01*
X994545Y715500D01*
X994545Y1414305D01*
X1123335Y1543095D02*
X1140030Y1559790D01*
X1123335Y1543095D02*
X994545Y1414305D01*
X1135500Y654400D02*
X1135260Y653490D01*
X2268135Y1669500D02*
X2356380Y1581255D01*
X2268135Y1669500D02*
X2160810Y1669500D01*
X2005785Y1824525D01*
X1941390Y1824525D01*
X2356380Y1581255D02*
X2356400Y1579400D01*
X1123335Y1543095D02*
X1092330Y1574100D01*
X1092330Y1602720D01*
X1390455Y1900845D01*
X1733895Y1900845D01*
X1755360Y1879380D01*
D18*
X1140030Y1559790D03*
X1941390Y1824525D03*
D17*
X1755360Y1876995D02*
X1754500Y1877700D01*
X1755360Y1876995D02*
X1755360Y1879380D01*
X1757745Y1874610D02*
X1848375Y1874610D01*
X1857915Y1865070D01*
X1872225Y1865070D01*
X1886535Y1879380D01*
X1757745Y1874610D02*
X1754500Y1877700D01*
X1886535Y1879380D02*
X1888100Y1880900D01*
X1860300Y1767285D02*
X1757745Y1767285D01*
X1860300Y1767285D02*
X1872225Y1779210D01*
X1886535Y1779210D01*
X1900845Y1764900D01*
X1757745Y1767285D02*
X1757100Y1765700D01*
X1900845Y1764900D02*
X1902500Y1762900D01*
X1970010Y1504935D02*
X1977165Y1504935D01*
X2103570Y1631340D01*
X2103570Y1645650D01*
X2105800Y1648000D01*
X1764900Y1299825D02*
X1764900Y1123335D01*
X1764900Y1299825D02*
X1970010Y1504935D01*
X1764900Y1123335D02*
X1763800Y1123000D01*
D19*
X1705275Y1843605D02*
X1705275Y1876995D01*
X1705275Y1843605D02*
X1705275Y1767285D01*
X1706300Y1765700D01*
X1705275Y1876995D02*
X1703700Y1877700D01*
X1695735Y1764900D02*
X1588410Y1764900D01*
X1588100Y1764900D01*
X1695735Y1764900D02*
X1705275Y1767285D01*
X1588410Y1764900D02*
X1588410Y1876995D01*
X1588100Y1877100D01*
X1564560Y1733895D02*
X1295055Y1733895D01*
X1564560Y1733895D02*
X1586025Y1755360D01*
X1295055Y1733895D02*
X1295000Y1732800D01*
X1586025Y1755360D02*
X1588410Y1764900D01*
X2117880Y1736280D02*
X2244285Y1736280D01*
X2117880Y1736280D02*
X2010555Y1843605D01*
X1705275Y1843605D01*
X2244285Y1736280D02*
X2245800Y1734500D01*
X1888920Y477000D02*
X1741050Y477000D01*
X1671885Y407835D01*
X1888920Y477000D02*
X1889000Y479000D01*
X1533555Y527085D02*
X1306980Y527085D01*
X1533555Y527085D02*
X1650420Y410220D01*
X1306980Y527085D02*
X1306800Y528900D01*
X1936620Y519930D02*
X2246670Y519930D01*
X1936620Y519930D02*
X1898460Y481770D01*
X2246670Y519930D02*
X2247800Y520100D01*
X1898460Y481770D02*
X1889000Y479000D01*
X2253825Y1729125D02*
X2270520Y1729125D01*
X2458935Y1540710D01*
X2458935Y691650D01*
X2291985Y524700D01*
X2256210Y524700D01*
X2253825Y1729125D02*
X2245800Y1734500D01*
X2256210Y524700D02*
X2247800Y520100D01*
X1986705Y911070D02*
X1986705Y918225D01*
X1986705Y911070D02*
X1989090Y908685D01*
X1989090Y868140D01*
X1922310Y801360D02*
X1922310Y641565D01*
X1936620Y627255D01*
X1936620Y519930D01*
X1986705Y918225D02*
X1986081Y919482D01*
X1671885Y407835D02*
X1662345Y410220D01*
X1650420Y410220D01*
D18*
X1989090Y868140D03*
X1922310Y801360D03*
M02*
